<svg width="355" height="78" viewBox="0 0 355 78" fill="none" xmlns="http://www.w3.org/2000/svg">
<path d="M37.9 77.9C31.3 77.9 25.6333 76.7333 20.9 74.4C16.1667 72.0667 12.3 69.0333 9.3 65.3C6.36667 61.5667 4.2 57.5 2.8 53.1C1.4 48.7 0.7 44.4667 0.7 40.4V38.2C0.7 33.6667 1.4 29.2 2.8 24.8C4.26667 20.4 6.5 16.4 9.5 12.8C12.5 9.2 16.3 6.33333 20.9 4.19999C25.5667 2 31.0667 0.899995 37.4 0.899995C44 0.899995 49.7333 2.1 54.6 4.5C59.5333 6.83333 63.4667 10.1667 66.4 14.5C69.3333 18.7667 71.1 23.7667 71.7 29.5H57.4C56.8667 26.1667 55.6667 23.3667 53.8 21.1C52 18.7667 49.7 17.0333 46.9 15.9C44.1 14.7 40.9333 14.1 37.4 14.1C33.8 14.1 30.6 14.7333 27.8 16C25 17.2 22.6667 18.9333 20.8 21.2C18.9333 23.4667 17.5 26.1333 16.5 29.2C15.5667 32.2667 15.1 35.6667 15.1 39.4C15.1 43 15.5667 46.3333 16.5 49.4C17.5 52.4667 18.9667 55.1667 20.9 57.5C22.8333 59.7667 25.2 61.5333 28 62.8C30.8667 64.0667 34.1667 64.7 37.9 64.7C43.3667 64.7 47.9667 63.3667 51.7 60.7C55.5 57.9667 57.8 54.1667 58.6 49.3H72.9C72.2333 54.5 70.4667 59.2667 67.6 63.6C64.7333 67.9333 60.8 71.4 55.8 74C50.8 76.6 44.8333 77.9 37.9 77.9ZM86.3828 76V21.7H100.283V76H86.3828ZM78.7828 32.1V21.7H100.283V32.1H78.7828ZM91.4828 15.2C88.7495 15.2 86.7161 14.5 85.3828 13.1C84.1161 11.6333 83.4828 9.83333 83.4828 7.7C83.4828 5.43333 84.1161 3.6 85.3828 2.2C86.7161 0.799995 88.7495 0.0999937 91.4828 0.0999937C94.2161 0.0999937 96.2161 0.799995 97.4828 2.2C98.7495 3.6 99.3828 5.43333 99.3828 7.7C99.3828 9.83333 98.7495 11.6333 97.4828 13.1C96.2161 14.5 94.2161 15.2 91.4828 15.2ZM116.302 76V21.7H127.302V44.7H127.002C127.002 36.9 128.669 31 132.002 27C135.336 23 140.236 21 146.702 21H148.702V33.1H144.902C140.236 33.1 136.602 34.3667 134.002 36.9C131.469 39.3667 130.202 42.9667 130.202 47.7V76H116.302ZM181.711 77.9C176.978 77.9 172.878 77.1 169.411 75.5C166.011 73.9 163.144 71.7667 160.811 69.1C158.544 66.4333 156.844 63.4333 155.711 60.1C154.578 56.7667 154.011 53.3667 154.011 49.9V48C154.011 44.3333 154.578 40.8333 155.711 37.5C156.911 34.1 158.678 31.1 161.011 28.5C163.344 25.8333 166.211 23.7333 169.611 22.2C173.078 20.6 177.078 19.8 181.611 19.8C186.344 19.8 190.578 20.7333 194.311 22.6C198.044 24.4 201.011 26.9333 203.211 30.2C205.478 33.4667 206.744 37.2667 207.011 41.6H193.511C193.178 38.8 191.978 36.4667 189.911 34.6C187.911 32.7333 185.144 31.8 181.611 31.8C178.544 31.8 175.978 32.5333 173.911 34C171.911 35.4667 170.411 37.5 169.411 40.1C168.411 42.6333 167.911 45.5667 167.911 48.9C167.911 52.1 168.378 55 169.311 57.6C170.311 60.2 171.811 62.2333 173.811 63.7C175.878 65.1667 178.511 65.9 181.711 65.9C184.111 65.9 186.178 65.4667 187.911 64.6C189.644 63.7333 191.011 62.5333 192.011 61C193.078 59.4667 193.744 57.7333 194.011 55.8H207.511C207.244 60.2 205.944 64.0667 203.611 67.4C201.344 70.6667 198.311 73.2333 194.511 75.1C190.778 76.9667 186.511 77.9 181.711 77.9ZM219.346 76V3H233.246V76H219.346ZM212.546 13.4V3H233.246V13.4H212.546ZM273.415 77.9C268.748 77.9 264.648 77.1 261.115 75.5C257.648 73.9 254.748 71.7667 252.415 69.1C250.148 66.3667 248.415 63.3333 247.215 60C246.082 56.6667 245.515 53.2667 245.515 49.8V47.9C245.515 44.3 246.082 40.8333 247.215 37.5C248.415 34.1 250.148 31.1 252.415 28.5C254.748 25.8333 257.615 23.7333 261.015 22.2C264.415 20.6 268.348 19.8 272.815 19.8C278.682 19.8 283.582 21.1 287.515 23.7C291.515 26.2333 294.515 29.6 296.515 33.8C298.515 37.9333 299.515 42.4 299.515 47.2V52.2H251.415V43.7H290.815L286.515 47.9C286.515 44.4333 286.015 41.4667 285.015 39C284.015 36.5333 282.482 34.6333 280.415 33.3C278.415 31.9667 275.882 31.3 272.815 31.3C269.748 31.3 267.148 32 265.015 33.4C262.882 34.8 261.248 36.8333 260.115 39.5C259.048 42.1 258.515 45.2333 258.515 48.9C258.515 52.3 259.048 55.3333 260.115 58C261.182 60.6 262.815 62.6667 265.015 64.2C267.215 65.6667 270.015 66.4 273.415 66.4C276.815 66.4 279.582 65.7333 281.715 64.4C283.848 63 285.215 61.3 285.815 59.3H298.615C297.815 63.0333 296.282 66.3 294.015 69.1C291.748 71.9 288.848 74.0667 285.315 75.6C281.848 77.1333 277.882 77.9 273.415 77.9ZM330.827 77.7C323.36 77.7 317.493 76.1333 313.227 73C309.027 69.8 306.827 65.4 306.627 59.8H319.127C319.327 61.6667 320.36 63.3667 322.227 64.9C324.093 66.4333 327.027 67.2 331.027 67.2C334.36 67.2 336.993 66.6 338.927 65.4C340.927 64.2 341.927 62.5667 341.927 60.5C341.927 58.7 341.16 57.2667 339.627 56.2C338.16 55.1333 335.627 54.4333 332.027 54.1L327.227 53.6C321.16 52.9333 316.493 51.2 313.227 48.4C309.96 45.6 308.327 41.8667 308.327 37.2C308.327 33.4667 309.26 30.3333 311.127 27.8C312.993 25.2667 315.56 23.3667 318.827 22.1C322.16 20.7667 325.96 20.1 330.227 20.1C336.893 20.1 342.293 21.5667 346.427 24.5C350.56 27.4333 352.727 31.7333 352.927 37.4H340.427C340.293 35.5333 339.36 33.9333 337.627 32.6C335.893 31.2667 333.393 30.6 330.127 30.6C327.193 30.6 324.927 31.1667 323.327 32.3C321.727 33.4333 320.927 34.9 320.927 36.7C320.927 38.4333 321.56 39.7667 322.827 40.7C324.16 41.6333 326.293 42.2667 329.227 42.6L334.027 43.1C340.427 43.7667 345.427 45.5333 349.027 48.4C352.693 51.2667 354.527 55.1333 354.527 60C354.527 63.6 353.527 66.7333 351.527 69.4C349.593 72 346.86 74.0333 343.327 75.5C339.793 76.9667 335.627 77.7 330.827 77.7Z" fill="white"/>
</svg>
